<?xml version="1.0" standalone="no"?>
<!DOCTYPE svg PUBLIC "-//W3C//DTD SVG 20010904//EN"
 "http://www.w3.org/TR/2001/REC-SVG-20010904/DTD/svg10.dtd">
<svg version="1.0" xmlns="http://www.w3.org/2000/svg"
 width="700.000000pt" height="700.000000pt" viewBox="0 0 700.000000 700.000000"
 preserveAspectRatio="xMidYMid meet">
<metadata>
Created by potrace 1.14, written by Peter Selinger 2001-2017
</metadata>
<g transform="translate(0.000000,700.000000) scale(0.100000,-0.100000)"
fill="#000000" stroke="none">
<path d="M1895 6990 c-146 -5 -165 -8 -219 -33 -86 -40 -147 -89 -193 -154
-67 -96 -74 -121 -84 -298 -4 -88 -8 -1293 -8 -2678 l-1 -2518 33 -73 c43 -92
136 -193 229 -247 47 -28 76 -53 94 -82 39 -63 83 -106 139 -135 78 -40 166
-40 545 2 340 37 561 58 770 75 69 6 181 15 250 21 336 28 1323 60 1270 41
-41 -14 -1037 -284 -1815 -491 -121 -32 -272 -73 -335 -90 -254 -67 -669 -169
-738 -180 -85 -14 -131 -8 -188 25 -48 28 -120 98 -139 136 -17 32 -83 270
-355 1284 -72 270 -183 681 -246 915 -63 234 -143 533 -178 665 -173 645 -197
736 -220 820 l-25 90 0 -260 -1 -260 64 -240 c35 -132 76 -285 90 -340 179
-672 665 -2465 719 -2652 51 -175 219 -317 389 -330 92 -6 180 12 553 112 395
106 924 248 1625 435 379 101 900 241 1213 326 236 63 240 64 368 64 166 0
249 18 328 71 76 51 148 129 189 206 l32 61 0 2685 0 2685 -40 79 c-50 100
-131 181 -226 225 -65 30 -74 32 -248 39 -212 9 -3407 8 -3641 -1z m3859 -178
c45 -30 84 -67 110 -105 40 -57 40 -58 47 -175 4 -64 8 -1262 8 -2661 l1
-2544 -22 -46 c-30 -61 -111 -141 -173 -171 l-50 -25 -1960 0 -1960 0 -50 32
c-59 38 -103 82 -139 140 l-26 43 2 2673 3 2672 32 51 c67 103 144 147 273
155 52 3 937 6 1965 7 l1870 1 69 -47z"/>
<path d="M1933 6606 c-12 -14 -49 -97 -84 -183 -80 -203 -102 -246 -136 -271
-15 -11 -25 -24 -20 -28 13 -13 111 -16 142 -4 l30 12 -27 14 c-32 17 -35 38
-14 89 16 37 30 41 116 35 44 -3 52 -10 69 -55 12 -34 11 -39 -9 -60 -22 -23
-22 -23 -2 -34 27 -14 142 -14 179 0 l28 11 -27 14 c-35 18 -42 33 -126 250
-38 99 -76 192 -84 208 l-15 28 -20 -26z m5 -188 c39 -107 41 -100 -20 -96
-50 3 -53 5 -51 28 1 26 39 120 47 120 2 0 13 -24 24 -52z"/>
<path d="M1851 5842 c-108 -111 -132 -172 -97 -241 29 -55 87 -73 149 -46 16
7 17 3 11 -42 -5 -44 -4 -51 12 -55 11 -2 27 -2 38 0 18 4 18 15 0 81 -7 22
-5 23 17 17 78 -25 125 -10 153 48 35 74 9 135 -103 237 -45 41 -87 76 -92 78
-6 2 -45 -33 -88 -77z"/>
<path d="M3656 5244 c-82 -118 -297 -336 -536 -544 -203 -177 -350 -319 -400
-386 -130 -174 -200 -454 -167 -674 8 -52 25 -122 38 -155 115 -282 421 -444
721 -380 85 18 178 62 258 121 33 26 63 44 66 42 5 -6 -27 -164 -60 -288 -44
-166 -78 -270 -120 -371 -6 -15 -2 -16 36 -8 90 17 273 22 381 9 60 -7 110
-10 113 -7 2 2 -13 53 -35 113 -61 172 -154 564 -134 564 3 0 26 -19 53 -43
167 -150 464 -191 663 -91 171 86 282 209 339 373 21 60 23 84 23 251 0 178
-1 188 -29 270 -85 247 -133 306 -526 644 -317 273 -513 480 -605 641 -9 14
-21 2 -79 -81z"/>
<path d="M5466 2482 c-3 -5 -1 -24 4 -43 16 -54 14 -56 -38 -51 -62 6 -104
-15 -127 -64 -23 -49 -13 -92 33 -147 46 -55 156 -157 169 -157 6 0 51 43 102
95 68 71 91 101 92 122 2 51 -3 98 -12 114 -13 26 -65 42 -115 36 l-46 -5 4
52 c3 51 3 51 -29 54 -17 2 -34 -1 -37 -6z"/>
<path d="M5250 1815 c0 -4 15 -24 34 -45 23 -25 50 -81 85 -171 71 -184 100
-254 116 -275 11 -16 16 -12 43 41 16 33 51 112 77 175 67 162 100 225 132
248 l27 20 -55 7 c-61 8 -141 -8 -102 -20 31 -10 34 -27 18 -84 -17 -55 -28
-61 -112 -61 l-51 0 -16 47 c-20 59 -20 72 1 95 15 17 14 18 -29 18 -25 0 -73
3 -107 6 -33 4 -61 3 -61 -1z m335 -222 c-4 -10 -14 -37 -22 -60 -25 -72 -38
-72 -62 -1 -12 34 -21 66 -21 70 0 4 25 8 56 8 50 0 55 -2 49 -17z"/>
<path d="M935 6025 c-93 -25 -233 -62 -310 -83 l-140 -38 -3 -73 c-3 -66 -1
-72 15 -67 10 3 151 42 313 86 162 44 311 89 330 99 20 10 39 30 45 45 8 25 6
31 -18 52 -16 13 -36 24 -45 23 -9 0 -93 -20 -187 -44z"/>
<path d="M6425 5866 c-129 -42 -178 -68 -229 -121 -82 -84 -144 -241 -133
-335 12 -99 216 -898 416 -1625 l49 -180 1 260 1 260 -34 125 c-41 151 -85
316 -176 675 -123 478 -132 551 -81 640 50 88 154 163 249 181 41 8 44 15 40
92 l-3 61 -100 -33z"/>
<path d="M553 5528 c-81 -23 -85 -28 -53 -93 29 -60 101 -351 103 -417 1 -41
-3 -62 -16 -76 -19 -21 -22 -42 -6 -42 23 0 48 22 79 70 44 69 42 119 -11 335
-40 162 -41 171 -25 198 17 31 20 47 9 46 -5 0 -41 -10 -80 -21z"/>
<path d="M6508 5499 c-24 -13 -23 -25 2 -32 16 -4 20 0 20 19 0 27 1 27 -22
13z"/>
<path d="M648 4752 c-70 -120 -84 -168 -64 -215 20 -48 61 -77 109 -77 23 0
48 7 58 16 26 23 39 9 39 -41 l0 -44 38 6 c20 3 39 7 41 9 2 2 -8 23 -23 48
l-26 44 43 7 c58 10 94 33 113 73 15 31 15 37 -1 78 -10 26 -32 56 -55 74 -33
26 -197 120 -210 120 -3 0 -31 -44 -62 -98z"/>
</g>
</svg>
