<svg xmlns="http://www.w3.org/2000/svg" version="1.1" xmlns:xlink="http://www.w3.org/1999/xlink" xmlns:svgjs="http://svgjs.dev/svgjs" width="250" height="250"><svg width="250" height="250" viewBox="0 0 250 250" fill="none" xmlns="http://www.w3.org/2000/svg">
<rect width="250" height="250" rx="30" fill="#31373D"></rect>
<path d="M200 112.5C200 121.704 192.537 129.167 183.333 129.167H66.6667C57.4625 129.167 50 121.704 50 112.5V37.5C50 28.2958 57.4625 20.8333 66.6667 20.8333H183.333C192.537 20.8333 200 28.2958 200 37.5V112.5Z" fill="#31373D"></path>
<path d="M95.8334 100C95.8334 109.204 92.5375 112.5 83.3334 112.5H66.6667C57.4625 112.5 54.1667 109.204 54.1667 100V50C54.1667 40.7958 57.4625 37.5 66.6667 37.5H83.3334C92.5375 37.5 95.8334 40.7958 95.8334 50V100ZM145.833 100C145.833 109.204 142.538 112.5 133.333 112.5H116.667C107.463 112.5 104.167 109.204 104.167 100V50C104.167 40.7958 107.463 37.5 116.667 37.5H133.333C142.538 37.5 145.833 40.7958 145.833 50V100ZM195.833 100C195.833 109.204 192.538 112.5 183.333 112.5H166.667C157.463 112.5 154.167 109.204 154.167 100V50C154.167 40.7958 157.463 37.5 166.667 37.5H183.333C192.538 37.5 195.833 40.7958 195.833 50V100Z" fill="#CCD6DD"></path>
<path d="M54.1667 54.1667H95.8334V95.8334H54.1667V54.1667ZM104.167 54.1667H145.833V95.8334H104.167V54.1667ZM154.167 54.1667H195.833V95.8334H154.167V54.1667Z" fill="#E1E8ED"></path>
<path d="M178.313 65.3542H166.579C164.104 65.3542 163.192 63.75 163.192 62.1917C163.192 60.5875 164.062 59.0292 166.579 59.0292H183.175C185.512 59.0292 186.475 61.1375 186.475 62.3292C186.475 63.2458 185.971 64.2083 185.421 65.3542L174.05 88.4583C172.767 91.0208 172.262 91.9417 170.196 91.9417C167.679 91.9417 166.396 90.0125 166.396 88.6875C166.396 88.1333 166.533 87.7208 166.85 87.0833L178.313 65.3542ZM128.312 65.3542H116.579C114.104 65.3542 113.187 63.75 113.187 62.1917C113.187 60.5875 114.058 59.0292 116.579 59.0292H133.175C135.513 59.0292 136.475 61.1375 136.475 62.3292C136.475 63.2458 135.971 64.2083 135.421 65.3542L124.05 88.4583C122.767 91.0208 122.262 91.9417 120.2 91.9417C117.679 91.9417 116.396 90.0125 116.396 88.6875C116.396 88.1333 116.533 87.7208 116.854 87.0833L128.312 65.3542ZM78.3125 65.3542H66.5792C64.1042 65.3542 63.1875 63.75 63.1875 62.1917C63.1875 60.5875 64.0583 59.0292 66.5792 59.0292H83.175C85.5125 59.0292 86.475 61.1375 86.475 62.3292C86.475 63.2458 85.9708 64.2083 85.4208 65.3542L74.05 88.4583C72.7667 91.0208 72.2625 91.9417 70.2 91.9417C67.6792 91.9417 66.3958 90.0125 66.3958 88.6875C66.3958 88.1333 66.5333 87.7208 66.8542 87.0833L78.3125 65.3542Z" fill="#BE1931"></path>
<path d="M62.7542 37.5C62.5875 38.175 62.5 38.8708 62.5 39.5833C62.5 45.3375 68.0958 50 75 50C81.9042 50 87.5 45.3375 87.5 39.5833C87.5 38.8708 87.4125 38.175 87.2458 37.5H62.7542ZM112.754 37.5C112.587 38.175 112.5 38.8708 112.5 39.5833C112.5 45.3375 118.096 50 125 50C131.9 50 137.5 45.3375 137.5 39.5833C137.5 38.8708 137.412 38.175 137.25 37.5H112.754ZM162.75 37.5C162.587 38.175 162.5 38.8708 162.5 39.5833C162.5 45.3375 168.1 50 175 50C181.9 50 187.5 45.3375 187.5 39.5833C187.5 38.8708 187.412 38.175 187.246 37.5H162.75Z" fill="#9266CC"></path>
<path d="M86.7333 112.5C87.2 111.846 87.5 111.15 87.5 110.417C87.5 106.967 81.9042 104.167 75 104.167C68.0958 104.167 62.5 106.967 62.5 110.417C62.5 111.15 62.8 111.846 63.2667 112.5H86.7333ZM136.733 112.5C137.2 111.846 137.5 111.15 137.5 110.417C137.5 106.967 131.9 104.167 125 104.167C118.096 104.167 112.5 106.967 112.5 110.417C112.5 111.15 112.8 111.846 113.267 112.5H136.733ZM186.733 112.5C187.2 111.846 187.5 111.15 187.5 110.417C187.5 106.967 181.9 104.167 175 104.167C168.1 104.167 162.5 106.967 162.5 110.417C162.5 111.15 162.8 111.846 163.267 112.5H186.733Z" fill="#F4900C"></path>
<path d="M60 154V149H50V144H60V149H65V154H60ZM50 169V164H45V149H50V164H60V169H50ZM60 164V159H65V164H60ZM75 169V149H80V144H90V149H95V169H90V159H80V169H75ZM80 154H90V149.2H80V154ZM110 149V144H125V149H110ZM120 164V159H110V154H105V149H110V154H120V159H125V164H120ZM105 169V164H120V169H105ZM135 169V144H140V169H135ZM150 169V144H155V149H160V154H165V159H170V144H175V169H170V164H165V159H160V154H155V169H150ZM190 169V164H185V149H190V144H200V149H205V164H200V169H190ZM190 163.8H200V149.2H190V163.8ZM85 220V195H100V200H90V205H100V210H90V220H85ZM115 220V215H110V195H115V215H125V220H115ZM125 215V195H130V215H125ZM140 220V195H145V200H150V205H155V210H160V195H165V220H160V215H155V210H150V205H145V220H140Z" fill="white"></path>
</svg><style>@media (prefers-color-scheme: light) { :root { filter: none; } }
@media (prefers-color-scheme: dark) { :root { filter: none; } }
</style></svg>