<svg width="50" height="51" viewBox="0 0 50 51" fill="none" xmlns="http://www.w3.org/2000/svg">
<path d="M47.9167 25.5C47.9167 38.1667 37.6667 48.4167 25 48.4167C12.3334 48.4167 2.08337 38.1667 2.08337 25.5C2.08337 12.8333 12.3334 2.58333 25 2.58333C37.6667 2.58333 47.9167 12.8333 47.9167 25.5ZM27.0834 8.95833C31.5209 9.52083 35.5625 11.8542 38.2709 15.4167L41.8959 13.3333C40.184 10.9196 37.9776 8.8983 35.4235 7.40392C32.8694 5.90955 30.0263 4.97642 27.0834 4.66667V8.95833ZM8.10421 13.3333L11.7292 15.4167C13.072 13.6515 14.7528 12.1714 16.6736 11.0626C18.5943 9.95377 20.7166 9.23845 22.9167 8.95833V4.66667C19.9738 4.97642 17.1307 5.90955 14.5766 7.40392C12.0225 8.8983 9.81609 10.9196 8.10421 13.3333ZM6.02087 34.0417L9.62504 31.9583C8.76899 29.9128 8.32814 27.7175 8.32814 25.5C8.32814 23.2825 8.76899 21.0872 9.62504 19.0417L6.02087 16.9583C4.79515 19.6391 4.16075 22.5523 4.16075 25.5C4.16075 28.4477 4.79515 31.3609 6.02087 34.0417ZM22.9167 42.0417C20.7166 41.7616 18.5943 41.0462 16.6736 39.9374C14.7528 38.8286 13.072 37.3485 11.7292 35.5833L8.10421 37.6667C9.81609 40.0804 12.0225 42.1017 14.5766 43.5961C17.1307 45.0904 19.9738 46.0236 22.9167 46.3333V42.0417ZM41.8959 37.6667L38.2709 35.5833C36.9281 37.3485 35.2473 38.8286 33.3265 39.9374C31.4057 41.0462 29.2835 41.7616 27.0834 42.0417V46.2083C33.0209 45.6042 38.4167 42.5 41.8959 37.6667ZM43.9792 34.0417C46.4584 28.625 46.4584 22.375 43.9792 16.9583L40.375 19.0417C41.2311 21.0872 41.6719 23.2825 41.6719 25.5C41.6719 27.7175 41.2311 29.9128 40.375 31.9583L43.9792 34.0417ZM31.25 25.5L25 15.0833L18.75 25.5L25 35.9167L31.25 25.5Z" fill="#FFB700"/>
</svg>
