<svg width="284" height="102" viewBox="0 0 284 102" fill="none" xmlns="http://www.w3.org/2000/svg">
<path d="M98 21.978C99.208 21.064 100 19.632 100 18C100 16.6739 99.4732 15.4021 98.5355 14.4645C97.5979 13.5268 96.3261 13 95 13C93.6739 13 92.4021 13.5268 91.4645 14.4645C90.5268 15.4021 90 16.6739 90 18C90.0019 18.7728 90.1835 19.5345 90.5307 20.225C90.8778 20.9154 91.3808 21.5156 92 21.978V53H74V69H94V68.406C95.4772 67.8113 96.7428 66.7883 97.6338 65.4685C98.5249 64.1487 99.0007 62.5924 99 61C99 59.618 98.618 58.336 98 57.202V21.978ZM12 35C14.042 35 15.46 35.344 18 35C18 35 9.968 40.332 9.968 47H20C20 47 20.012 35.892 26 29L24 27C24 27 20 29 16 27C16 27 12 27 8 29V27H6V39H8C8 39 8 35 12 35ZM40 35C42.042 35 43.46 35.344 46 35C46 35 37.968 40.332 37.968 47H48C48 47 48.012 35.892 54 29L52 27C52 27 48 29 44 27C44 27 40 27 36 29V27H34V39H36C36 39 36 35 40 35ZM76 15V11H51.76C50.848 6.996 47.282 4 43 4C38.718 4 35.152 6.996 34.24 11H10V15H0V97H88V15H76ZM32 23H56V51H32V23ZM4 23H28V51H4V23ZM76 87H10V73H76V87ZM84 51H60V23H84V51ZM68 35C70.042 35 71.46 35.344 74 35C74 35 65.968 40.332 65.968 47H76C76 47 76.012 35.892 82 29L80 27C80 27 76 29 72 27C72 27 68 27 64 29V27H62V39H64C64 39 64 35 68 35Z" fill="#FFDD00"/>
<path d="M134 26V21H124V16H134V21H139V26H134ZM124 41V36H119V21H124V36H134V41H124ZM134 36V31H139V36H134ZM149 41V21H154V16H164V21H169V41H164V31H154V41H149ZM154 26H164V21.2H154V26ZM184 21V16H199V21H184ZM194 36V31H184V26H179V21H184V26H194V31H199V36H194ZM179 41V36H194V41H179ZM209 41V16H214V41H209ZM224 41V16H229V21H234V26H239V31H244V16H249V41H244V36H239V31H234V26H229V41H224ZM264 41V36H259V21H264V16H274V21H279V36H274V41H264ZM264 35.8H274V21.2H264V35.8Z" fill="white"/>
<path d="M119 92V67H134V72H124V77H134V82H124V92H119ZM149 92V87H144V67H149V87H159V92H149ZM159 87V67H164V87H159ZM174 92V67H179V72H184V77H189V82H194V67H199V92H194V87H189V82H184V77H179V92H174Z" fill="white"/>
</svg>
